<svg width="570" height="168" viewBox="0 0 570 168" fill="none" xmlns="http://www.w3.org/2000/svg">
<path d="M448.731 129.352V119.083L479.128 81.446V80.9994H448.731V67.2546H500.916V78.4528L471.328 115.162V115.606H500.916V129.352H448.731Z" fill="white"/>
<path d="M522.748 152.309C520.696 152.319 518.646 152.15 516.622 151.804C515.017 151.546 513.441 151.132 511.916 150.57L515.795 137.674C518.259 138.567 520.908 138.824 523.497 138.422C525.585 137.978 527.235 136.354 528.446 133.551L529.458 130.923L507.186 67.0452H525.295L538.15 112.649H538.796L551.771 67.0452L570 67.1265L545.868 135.854C544.806 138.993 543.214 141.926 541.162 144.527C539.156 147.011 536.584 148.979 533.662 150.267C530.21 151.712 526.49 152.408 522.748 152.309Z" fill="white"/>
<path d="M192.86 129.148H163.512V46.3498H193.103C200.575 46.1482 207.975 47.8525 214.607 51.3022C220.554 54.5409 225.391 59.4917 228.492 65.513C231.7 72.4721 233.362 80.0445 233.362 87.708C233.362 95.3715 231.7 102.944 228.492 109.903C225.386 115.957 220.525 120.931 214.545 124.174C207.854 127.642 200.393 129.353 192.86 129.148ZM181.017 114.148H192.132C196.651 114.292 201.138 113.341 205.21 111.378C208.781 109.504 211.604 106.465 213.212 102.767C215.173 97.9823 216.09 92.8342 215.902 87.6667C216.087 82.5325 215.169 77.4184 213.212 72.6687C211.605 68.9861 208.789 65.9623 205.231 64.097C201.162 62.1468 196.683 61.2043 192.174 61.3491H181.017V114.148Z" fill="white"/>
<path d="M239.819 129.148V67.0506H256.514V77.8848H257.16C258.039 74.4164 260.045 71.3381 262.862 69.1325C265.522 67.1533 268.761 66.1088 272.076 66.1613C273.008 66.1654 273.94 66.2192 274.866 66.3227C275.751 66.4116 276.629 66.5604 277.494 66.768V82.05C276.393 81.7503 275.271 81.5337 274.137 81.402C272.838 81.2238 271.528 81.1298 270.216 81.1207C267.856 81.0783 265.525 81.6422 263.445 82.7586C261.498 83.8187 259.878 85.3906 258.759 87.3045C257.586 89.3441 256.992 91.6651 257.04 94.0175V129.148L239.819 129.148Z" fill="white"/>
<path d="M330.431 129.147H301.083V46.3495H330.674C338.146 46.1479 345.546 47.8523 352.178 51.302C358.125 54.5407 362.962 59.4916 366.061 65.5127C369.271 72.4717 370.933 80.0441 370.933 87.7078C370.933 95.3714 369.271 102.944 366.061 109.903C362.957 115.956 358.096 120.931 352.116 124.174C345.425 127.641 337.964 129.352 330.431 129.147ZM318.587 114.148H329.703C334.222 114.291 338.708 113.341 342.78 111.378C346.351 109.504 349.175 106.465 350.783 102.767C352.744 97.9819 353.66 92.8339 353.472 87.6665C353.657 82.5324 352.74 77.4182 350.783 72.6684C349.175 68.9858 346.36 65.962 342.801 64.0968C338.732 62.1466 334.254 61.2041 329.745 61.3489H318.587V114.148Z" fill="white"/>
<path d="M283.439 128.78C284.588 128.78 285.711 128.44 286.666 127.801C287.621 127.163 288.365 126.256 288.805 125.195C289.244 124.133 289.359 122.966 289.135 121.839C288.911 120.712 288.358 119.677 287.546 118.865C286.734 118.053 285.699 117.5 284.572 117.275C283.446 117.051 282.278 117.166 281.217 117.606C280.156 118.046 279.249 118.79 278.611 119.745C277.973 120.7 277.632 121.823 277.632 122.972C277.632 124.512 278.244 125.99 279.333 127.079C280.422 128.168 281.899 128.78 283.439 128.78Z" fill="#5751FF"/>
<path d="M441.644 96.8465C441.644 103.327 439.723 109.662 436.123 115.05C432.523 120.438 427.407 124.638 421.42 127.117C415.434 129.597 408.847 130.246 402.492 128.982C396.138 127.718 390.3 124.597 385.719 120.015C381.137 115.433 378.017 109.594 376.753 103.239C375.489 96.8829 376.137 90.2949 378.617 84.3079C381.097 78.3209 385.296 73.2037 390.683 69.6034C396.07 66.0032 402.404 64.0815 408.884 64.0815C413.186 64.0815 417.446 64.929 421.42 66.5756C425.395 68.2222 429.007 70.6357 432.049 73.6782C435.091 76.7207 437.504 80.3327 439.15 84.3079C440.797 88.2832 441.644 92.5438 441.644 96.8465ZM408.884 81.4986C405.848 81.4986 402.882 82.3987 400.358 84.0851C397.834 85.7716 395.867 88.1686 394.706 90.9731C393.544 93.7776 393.241 96.8635 393.833 99.8408C394.425 102.818 395.886 105.553 398.032 107.699C400.179 109.846 402.913 111.307 405.89 111.9C408.867 112.492 411.952 112.188 414.756 111.026C417.56 109.865 419.957 107.897 421.643 105.373C423.329 102.849 424.229 99.8821 424.229 96.8465C424.229 92.776 422.613 88.8722 419.735 85.9939C416.857 83.1156 412.954 81.4986 408.884 81.4986Z" fill="white"/>
<path d="M136.858 130.059C135.269 133.368 133.04 136.332 130.299 138.782C127.558 141.233 124.358 143.122 120.883 144.34C117.407 145.559 113.725 146.084 110.046 145.885C106.366 145.687 102.763 144.768 99.4403 143.182L82.9884 135.255L75.0735 151.719C73.4831 155.035 71.2516 158.006 68.5066 160.463C65.7616 162.92 62.557 164.814 59.0759 166.038C53.8392 167.869 48.1732 168.107 42.8002 166.721C37.4272 165.335 32.5906 162.388 28.907 158.256C25.2091 154.106 22.8229 148.963 22.047 143.47C21.271 137.978 22.1398 132.379 24.5445 127.375L32.4594 110.911L16.0133 102.987C9.27332 99.7782 4.09038 94.0358 1.6047 87.0234C-0.88098 80.0111 -0.465806 72.3032 2.7589 65.5955C5.98361 58.8878 11.7537 53.7297 18.7998 51.256C25.8459 48.7822 33.5909 49.1954 40.3308 52.4046L56.7778 60.3281L64.6927 43.8636C66.283 40.5556 68.5129 37.5919 71.2548 35.142C73.9967 32.692 77.1968 30.8039 80.6724 29.5855C84.1479 28.3671 87.8306 27.8423 91.51 28.0411C95.1894 28.2399 98.7934 29.1585 102.116 30.7442C104.497 31.8889 106.701 33.3675 108.66 35.1348C104.367 36.1127 100.629 38.721 98.2412 42.4034C95.8443 46.0924 94.979 50.563 95.8274 54.8742C96.6758 59.1853 99.1718 63.0008 102.79 65.5174C106.398 68.0184 110.848 69.0125 115.184 68.2866L107.307 84.6721L123.759 92.5981C130.454 95.8727 135.583 101.641 138.035 108.653C140.487 115.664 140.064 123.355 136.858 130.059Z" fill="#5751FF"/>
<path d="M185.203 0.632812H181.84V10.0664H179.57V1.28906H176.316V24.4219H179.57V12.8555H181.84V25.5156H185.203V0.632812ZM163.438 17.9961L165.461 20.4023C172.475 16.3281 174.553 10.6406 174.566 3.69531H164.695V6.48438H171.162C170.697 11.3652 168.51 15.0156 163.438 17.9961ZM210.688 12.7461H187.91V15.5352H197.727V19.8555H201.254V15.5352H210.688V12.7461ZM190.262 6.26562C190.262 9.4375 193.871 11.4062 199.285 11.4062C204.672 11.4062 208.268 9.4375 208.281 6.26562C208.268 3.10742 204.672 1.125 199.285 1.09766C193.871 1.125 190.262 3.10742 190.262 6.26562ZM190.617 25.0781H208.172V22.2617H194.145V17.6406H190.617V25.0781ZM194.035 6.26562C194.021 4.67969 196.072 3.85938 199.285 3.85938C202.498 3.85938 204.535 4.67969 204.535 6.26562C204.535 7.7832 202.498 8.60352 199.285 8.61719C196.072 8.60352 194.021 7.7832 194.035 6.26562ZM231.879 0.660156H228.379V19.2266H231.879V11.1328H235.242V8.28906H231.879V0.660156ZM212.137 6.01953H226.902V3.25781H221.27V0.605469H217.797V3.25781H212.137V6.01953ZM213.34 11.707C213.34 14.5781 215.896 16.4648 219.52 16.4648C223.129 16.4648 225.645 14.5781 225.645 11.707C225.645 8.82227 223.129 6.89453 219.52 6.89453C215.896 6.89453 213.34 8.82227 213.34 11.707ZM215.746 25.0781H232.781V22.2891H219.219V17.8047H215.746V25.0781ZM216.758 11.707C216.744 10.3262 217.852 9.56055 219.52 9.54688C221.201 9.56055 222.336 10.3262 222.336 11.707C222.336 13.0742 221.201 13.8125 219.52 13.8125C217.852 13.8125 216.744 13.0742 216.758 11.707ZM249.488 2.38281C245.674 2.38281 242.912 5.81445 242.926 11.2422C242.912 16.7109 245.674 20.1289 249.488 20.1289C253.289 20.1289 256.037 16.7109 256.051 11.2422C256.037 5.81445 253.289 2.38281 249.488 2.38281ZM246.289 11.2422C246.289 7.55078 247.588 5.52734 249.488 5.52734C251.43 5.52734 252.701 7.55078 252.715 11.2422C252.701 14.9473 251.43 16.9707 249.488 16.957C247.588 16.9707 246.289 14.9473 246.289 11.2422ZM258.922 25.5156H262.422V12.9102H266.086V10.0117H262.422V0.632812H258.922V25.5156ZM281.754 3.12109H276.695V0.550781H273.141V3.12109H268.055V5.85547H273.141C273.059 8.60352 271.172 11.3105 267.234 12.4727L268.848 15.1523C271.814 14.3184 273.852 12.5273 274.973 10.2441C276.135 12.3223 278.158 13.9355 281.043 14.6875L282.656 11.9531C278.664 10.9551 276.75 8.39844 276.668 5.85547H281.754V3.12109ZM271.145 25.2422H287.824V16.2734H271.145V25.2422ZM274.59 22.4531V19.0625H284.406V22.4531H274.59ZM284.324 15.2344H287.824V0.660156H284.324V15.2344ZM302.48 1.45312C297.176 1.45312 294.031 2.94336 294.031 5.63672C294.031 8.37109 297.176 9.875 302.48 9.875C307.799 9.875 310.93 8.37109 310.93 5.63672C310.93 2.94336 307.799 1.45312 302.48 1.45312ZM291.516 13.1016H313.5V11.6797H291.516V13.1016ZM294.223 16.7656H308.934V19.2266H294.305V24.832H311.367V23.4102H295.973V20.5664H310.602V15.3984H294.223V16.7656ZM295.809 5.63672C295.809 3.87305 298.352 2.79297 302.48 2.79297C306.637 2.79297 309.18 3.87305 309.18 5.63672C309.18 7.46875 306.637 8.52148 302.48 8.53516C298.352 8.52148 295.809 7.46875 295.809 5.63672ZM342.156 1.01562H340.434V15.3711H335.348V16.6836H340.434V19.3906H342.156V1.01562ZM322.332 12.3359L322.578 13.8125C324.656 13.8125 327.076 13.7988 329.605 13.7031V18.4609H331.328V13.6211C333.639 13.4844 335.99 13.2656 338.219 12.9102L338.082 11.625C332.9 12.2949 326.83 12.3359 322.332 12.3359ZM324.301 6.21094C324.314 8.79492 326.707 10.3809 330.262 10.3672C333.803 10.3809 336.195 8.79492 336.223 6.21094C336.195 3.69531 333.803 2.05469 330.262 2.05469C326.707 2.05469 324.314 3.69531 324.301 6.21094ZM325.914 24.5586H342.785V23.1094H327.637V17.5586H325.914V24.5586ZM325.969 6.21094C325.941 4.54297 327.705 3.36719 330.262 3.39453C332.764 3.36719 334.541 4.54297 334.555 6.21094C334.541 7.91992 332.764 9.05469 330.262 9.05469C327.705 9.05469 325.941 7.91992 325.969 6.21094ZM365.453 0.90625H363.73V14.332H365.453V8.42578H369.199V6.97656H365.453V0.90625ZM346.75 4.73438H361.133V3.33984H354.789V0.714844H353.094V3.33984H346.75V4.73438ZM348.172 9.95703C348.158 12.418 350.441 13.9219 353.941 13.9219C357.414 13.9219 359.67 12.418 359.684 9.95703C359.67 7.50977 357.414 6.00586 353.941 5.99219C350.441 6.00586 348.158 7.50977 348.172 9.95703ZM349.812 9.95703C349.799 8.38477 351.439 7.31836 353.941 7.30469C356.402 7.31836 358.043 8.38477 358.07 9.95703C358.043 11.5566 356.402 12.5957 353.941 12.582C351.439 12.5957 349.799 11.5566 349.812 9.95703ZM350.25 17.0117H363.73V19.4453H350.305V24.832H366.383V23.4375H352V20.7852H365.453V15.6719H350.25V17.0117ZM393.535 1.58984H391.922V23.9023H393.535V12.4727H396.816V25.1328H398.484V1.01562H396.816V11.0234H393.535V1.58984ZM378.469 18.6797H379.371C380.314 18.6934 381.969 18.6797 384.102 18.1875L383.91 16.6836C382.406 17.0801 381.025 17.1758 380.082 17.1895V5.55469H383.719V4.10547H378.469V18.6797ZM384.812 18.6797H385.77C387.137 18.6934 388.887 18.666 390.965 18.0781L390.746 16.5742C389.133 17.0801 387.602 17.1758 386.398 17.2031V5.55469H390.172V4.10547H384.812V18.6797Z" fill="white"/>
</svg>
