<svg width="145" height="31" viewBox="0 0 145 31" fill="none" xmlns="http://www.w3.org/2000/svg">
<path d="M112.831 24.4769V21.827L120.675 12.1145V11.9993H112.831V8.45239H126.297V11.3421L118.662 20.8151V20.9297H126.297V24.4769H112.831Z" fill="white"/>
<path d="M131.932 30.403C131.402 30.4058 130.873 30.3622 130.351 30.2727C129.937 30.2061 129.53 30.0995 129.137 29.9543L130.138 26.6266C130.773 26.857 131.457 26.9233 132.125 26.8194C132.664 26.7048 133.09 26.2858 133.402 25.5624L133.663 24.8842L127.916 8.40039H132.589L135.906 20.1686H136.073L139.421 8.40039L144.125 8.42138L137.898 26.1569C137.624 26.9668 137.213 27.7237 136.684 28.3948C136.166 29.036 135.502 29.5438 134.748 29.876C133.857 30.249 132.897 30.4286 131.932 30.403Z" fill="white"/>
<path d="M46.8028 24.4252H39.2295V3.05882H46.8654C48.7937 3.0068 50.7034 3.44661 52.4147 4.33683C53.9494 5.17257 55.1977 6.45017 55.9977 8.00398C56.8257 9.79982 57.2545 11.7539 57.2545 13.7315C57.2545 15.7091 56.8257 17.6632 55.9977 19.4591C55.1963 21.0212 53.9419 22.3049 52.3987 23.1419C50.6721 24.0366 48.7467 24.4781 46.8028 24.4252ZM43.7467 20.5545H46.615C47.7811 20.5916 48.9389 20.3463 49.9899 19.8398C50.9113 19.356 51.6397 18.5719 52.0547 17.6175C52.5607 16.3828 52.7974 15.0544 52.749 13.7209C52.7966 12.396 52.5599 11.0762 52.0547 9.85054C51.64 8.90024 50.9135 8.11992 49.9952 7.63859C48.9452 7.13533 47.7895 6.89212 46.6257 6.92947H43.7467V20.5545Z" fill="white"/>
<path d="M58.9207 24.4248V8.40026H63.2287V11.1961H63.3956C63.6224 10.301 64.1399 9.50666 64.8669 8.93751C65.5533 8.42677 66.3893 8.15722 67.2447 8.17078C67.4853 8.17182 67.7256 8.18572 67.9647 8.21241C68.193 8.23536 68.4196 8.27376 68.6427 8.32732V12.2709C68.3586 12.1936 68.069 12.1377 67.7765 12.1037C67.4412 12.0577 67.1033 12.0335 66.7648 12.0311C66.1558 12.0202 65.5541 12.1657 65.0174 12.4538C64.515 12.7273 64.0969 13.133 63.8082 13.6269C63.5055 14.1532 63.3522 14.7521 63.3646 15.3592V24.4248L58.9207 24.4248Z" fill="white"/>
<path d="M82.3031 24.4252H74.7298V3.05882H82.3657C84.294 3.0068 86.2037 3.44661 87.9149 4.33683C89.4496 5.17259 90.6978 6.45019 91.4976 8.00397C92.3259 9.79977 92.7548 11.7539 92.7548 13.7315C92.7548 15.7091 92.3259 17.6633 91.4976 19.4591C90.6964 21.0212 89.4421 22.3049 87.899 23.1419C86.1724 24.0365 84.247 24.4781 82.3031 24.4252ZM79.2466 20.5545H82.1153C83.2813 20.5916 84.439 20.3463 85.4899 19.8398C86.4113 19.356 87.1399 18.572 87.5549 17.6175C88.0609 16.3828 88.2975 15.0543 88.249 13.7209C88.2967 12.396 88.0601 11.0763 87.5549 9.85054C87.1401 8.90022 86.4135 8.1199 85.4952 7.63859C84.4452 7.13533 83.2896 6.89211 82.126 6.92947H79.2466V20.5545Z" fill="white"/>
<path d="M70.1764 24.332C70.4728 24.332 70.7626 24.2441 71.009 24.0794C71.2555 23.9147 71.4476 23.6806 71.561 23.4067C71.6744 23.1329 71.7041 22.8315 71.6463 22.5408C71.5884 22.25 71.4457 21.983 71.2361 21.7733C71.0265 21.5637 70.7595 21.421 70.4688 21.3632C70.1781 21.3053 69.8768 21.335 69.6029 21.4484C69.3291 21.5619 69.0951 21.754 68.9304 22.0005C68.7657 22.247 68.6778 22.5367 68.6778 22.8332C68.6779 23.2307 68.8358 23.6119 69.1168 23.893C69.3978 24.174 69.779 24.332 70.1764 24.332Z" fill="#5751FF"/>
<path d="M111.002 16.0889C111.002 17.7612 110.506 19.3959 109.577 20.7864C108.648 22.1768 107.328 23.2605 105.783 23.9005C104.239 24.5404 102.539 24.7079 100.899 24.3816C99.2589 24.0554 97.7526 23.2501 96.5703 22.0676C95.388 20.8851 94.5828 19.3786 94.2566 17.7384C93.9304 16.0983 94.0979 14.3983 94.7377 12.8533C95.3776 11.3083 96.4611 9.9878 97.8514 9.05873C99.2416 8.12967 100.876 7.63379 102.548 7.63379C103.658 7.63379 104.758 7.85249 105.783 8.2774C106.809 8.70231 107.741 9.32511 108.526 10.1102C109.311 10.8954 109.934 11.8275 110.359 12.8533C110.783 13.8791 111.002 14.9786 111.002 16.0889ZM102.548 12.1283C101.765 12.1283 100.999 12.3606 100.348 12.7958C99.6968 13.231 99.1892 13.8496 98.8895 14.5733C98.5898 15.297 98.5114 16.0933 98.6642 16.8616C98.817 17.6299 99.1941 18.3356 99.748 18.8895C100.302 19.4434 101.007 19.8206 101.776 19.9734C102.544 20.1263 103.34 20.0478 104.064 19.7481C104.787 19.4483 105.406 18.9406 105.841 18.2893C106.276 17.638 106.508 16.8723 106.508 16.0889C106.508 15.0385 106.091 14.0311 105.348 13.2884C104.606 12.5456 103.598 12.1283 102.548 12.1283Z" fill="white"/>
<path d="M30.3888 22.6618C30.0359 23.3965 29.541 24.0547 28.9324 24.5988C28.3237 25.1429 27.6132 25.5623 26.8415 25.8329C26.0699 26.1036 25.2522 26.2201 24.4352 26.176C23.6182 26.1319 22.818 25.9279 22.0804 25.5757L18.4273 23.8156L16.6698 27.4714C16.3166 28.2077 15.8211 28.8674 15.2116 29.413C14.6021 29.9585 13.8905 30.3792 13.1176 30.6508C11.9548 31.0574 10.6967 31.1102 9.50361 30.8025C8.31056 30.4947 7.23662 29.8404 6.41868 28.9228C5.59759 28.0014 5.06775 26.8594 4.89545 25.6398C4.72316 24.4201 4.91606 23.177 5.45001 22.066L7.20749 18.4101L3.5557 16.6507C2.05911 15.9381 0.908254 14.663 0.356318 13.1059C-0.195618 11.5489 -0.103431 9.83736 0.612604 8.34795C1.32864 6.85853 2.60986 5.71319 4.17442 5.1639C5.73899 4.61461 7.45872 4.70635 8.95531 5.41896L12.6073 7.17834L14.3648 3.52246C14.7179 2.78792 15.213 2.12984 15.8219 1.58585C16.4307 1.04185 17.1413 0.622596 17.913 0.352054C18.6847 0.0815111 19.5025 -0.0350168 20.3195 0.00913015C21.1365 0.0532771 21.9367 0.257234 22.6745 0.609341C23.2031 0.863512 23.6925 1.19183 24.1275 1.58426C23.1743 1.8014 22.3442 2.38057 21.8141 3.19823C21.2819 4.01736 21.0897 5.01004 21.2781 5.96731C21.4665 6.92459 22.0207 7.77179 22.8241 8.3306C23.6253 8.88594 24.6133 9.10668 25.5762 8.94548L23.8271 12.5838L27.4802 14.3438C28.9668 15.0709 30.1057 16.3516 30.6502 17.9086C31.1946 19.4656 31.1007 21.1733 30.3888 22.6618Z" fill="#5751FF"/>
</svg>
